<svg width="50" height="50" viewBox="0 0 50 50" fill="none" xmlns="http://www.w3.org/2000/svg">
<path d="M36.3615 27.5C38.2358 27.5 39.8852 26.475 40.7349 24.925L49.6816 8.7C50.6062 7.05 49.4067 5 47.5074 5H10.5211L8.17197 0H0V5H4.99814L13.9948 23.975L10.6211 30.075C8.79673 33.425 11.1958 37.5 14.9944 37.5H44.9833V32.5H14.9944L17.7434 27.5H36.3615ZM12.8952 10H43.2589L36.3615 22.5H18.818L12.8952 10ZM14.9944 40C12.2455 40 10.0213 42.25 10.0213 45C10.0213 47.75 12.2455 50 14.9944 50C17.7434 50 19.9926 47.75 19.9926 45C19.9926 42.25 17.7434 40 14.9944 40ZM39.9852 40C37.2362 40 35.012 42.25 35.012 45C35.012 47.75 37.2362 50 39.9852 50C42.7341 50 44.9833 47.75 44.9833 45C44.9833 42.25 42.7341 40 39.9852 40Z" fill="black"/>
</svg>
