<svg width="23" height="23" viewBox="0 0 23 23" fill="none" xmlns="http://www.w3.org/2000/svg">
<path d="M11.5 0C5.152 0 0 5.152 0 11.5C0 17.848 5.152 23 11.5 23C17.848 23 23 17.848 23 11.5C23 5.152 17.848 0 11.5 0ZM5.8305 18.722C6.325 17.687 9.338 16.675 11.5 16.675C13.662 16.675 16.6865 17.687 17.1695 18.722C15.6055 19.964 13.639 20.7 11.5 20.7C9.361 20.7 7.3945 19.964 5.8305 18.722ZM18.814 17.0545C17.1695 15.0535 13.179 14.375 11.5 14.375C9.821 14.375 5.8305 15.0535 4.186 17.0545C3.013 15.5135 2.3 13.593 2.3 11.5C2.3 6.4285 6.4285 2.3 11.5 2.3C16.5715 2.3 20.7 6.4285 20.7 11.5C20.7 13.593 19.987 15.5135 18.814 17.0545ZM11.5 4.6C9.269 4.6 7.475 6.394 7.475 8.625C7.475 10.856 9.269 12.65 11.5 12.65C13.731 12.65 15.525 10.856 15.525 8.625C15.525 6.394 13.731 4.6 11.5 4.6ZM11.5 10.35C10.5455 10.35 9.775 9.5795 9.775 8.625C9.775 7.6705 10.5455 6.9 11.5 6.9C12.4545 6.9 13.225 7.6705 13.225 8.625C13.225 9.5795 12.4545 10.35 11.5 10.35Z" fill="#D9D9D9"/>
</svg>
