<svg width="40" height="58" viewBox="0 0 40 58" fill="none" xmlns="http://www.w3.org/2000/svg">
<path d="M20 29C23.866 29 27 25.6421 27 21.5C27 17.3579 23.866 14 20 14C16.134 14 13 17.3579 13 21.5C13 25.6421 16.134 29 20 29Z" fill="#D9D9D9"/>
<path d="M20 0C8.94286 0 0 9.077 0 20.3C0 35.525 20 58 20 58C20 58 40 35.525 40 20.3C40 9.077 31.0571 0 20 0ZM5.71429 20.3C5.71429 12.296 12.1143 5.8 20 5.8C27.8857 5.8 34.2857 12.296 34.2857 20.3C34.2857 28.652 26.0571 41.151 20 48.952C14.0571 41.209 5.71429 28.565 5.71429 20.3Z" fill="#D9D9D9"/>
</svg>
