<svg width="21" height="23" viewBox="0 0 21 23" fill="none" xmlns="http://www.w3.org/2000/svg">
<path d="M10.5 0C6.1375 0 2.625 2.93107 2.625 6.57143V7.66667C1.19036 7.66667 0 8.65998 0 9.85714V20.8095C0 22.0067 1.19036 23 2.625 23H18.375C19.8096 23 21 22.0067 21 20.8095V9.85714C21 8.65998 19.8096 7.66667 18.375 7.66667V6.57143C18.375 2.93107 14.8625 0 10.5 0ZM10.5 2.19048C13.4875 2.19048 15.75 4.07846 15.75 6.57143V7.66667H5.25V6.57143C5.25 4.07846 7.5125 2.19048 10.5 2.19048ZM2.625 9.85714H18.375V20.8095H2.625V9.85714ZM10.5 13.1429C9.05625 13.1429 7.875 14.1286 7.875 15.3333C7.875 16.5381 9.05625 17.5238 10.5 17.5238C11.9438 17.5238 13.125 16.5381 13.125 15.3333C13.125 14.1286 11.9438 13.1429 10.5 13.1429Z" fill="#D9D9D9"/>
</svg>
